<svg width="538" height="88" viewBox="0 0 538 88" fill="none" xmlns="http://www.w3.org/2000/svg">
<g filter="url(#filter0_d)">
<path d="M56.0833 48.7336C52.3933 54.1302 46.99 56.6802 40.6666 56.6802C32.9866 56.6802 26.4133 50.7702 27.3566 42.9336C28.4066 34.2402 35.1566 30.5002 46.3833 29.1236C48.3866 28.8802 49.2166 28.8102 53.54 28.4902L54 28.4569V27.7402C54 21.7536 50.44 17.6669 45.6666 17.6669C40.8766 17.6669 37.5333 20.1569 35.4833 26.0869L29.1833 23.9136C32.14 15.3469 37.9766 11.0002 45.6666 11.0002C54.3433 11.0002 60.6666 18.2602 60.6666 27.7402C60.6666 36.5702 61.21 43.5936 62.2766 46.2636C63.4633 49.2369 63.8966 49.9869 65.2233 51.6402L60.0233 55.8102C58.28 53.6369 57.5133 52.3136 56.0866 48.7369V48.7336H56.0833ZM74.8566 68.4836C73.9533 69.1502 72.3833 68.7536 73.0933 67.0169C73.9766 64.8569 74.9166 62.3236 73.9666 61.1769C73.2666 60.3269 72.41 59.9036 70.5433 59.9036C69.01 59.9036 68.2433 60.1036 67.2266 60.1702C66.5466 60.2136 66.25 59.1802 66.9233 58.7036C67.805 58.0719 68.7848 57.5898 69.8233 57.2769C73.6566 56.1302 78.1733 56.7602 78.7233 57.5536C79.94 59.3202 78.06 66.1169 74.8566 68.4869V68.4836ZM70.9166 64.8702C70.051 65.7076 69.1264 66.4818 68.15 67.1869C61.0766 72.5736 51.9166 75.3869 43.9566 75.3869C31.1466 75.3869 19.69 69.4102 10.9966 59.4036C10.2533 58.6369 10.87 57.5169 11.74 58.1236C21.1066 65.0469 32.7 69.2336 44.7033 69.2336C52.2533 69.2336 60.3966 67.4436 68.1533 63.5902C68.6933 63.3369 69.3 62.9902 69.83 62.7436C71.0533 62.0436 72.13 63.7636 70.9166 64.8702ZM54.0333 35.1369C49.84 35.4502 49.0466 35.5136 47.1933 35.7402C38.6866 36.7836 34.5366 39.0836 33.9766 43.7336C33.5566 47.2102 36.6766 50.0136 40.6666 50.0136C47.4633 50.0136 52.39 45.9202 54.0733 35.1369H54.0333Z" fill="#C4C4C4"/>
<path d="M179 36.6667C180.768 36.6667 182.464 35.9644 183.714 34.7141C184.964 33.4639 185.667 31.7682 185.667 30.0001C185.667 28.232 184.964 26.5363 183.714 25.286C182.464 24.0358 180.768 23.3334 179 23.3334H164V36.6667H179ZM182.333 43.3334H164V56.6668H182.333C184.101 56.6668 185.797 55.9644 187.047 54.7141C188.298 53.4639 189 51.7682 189 50.0001C189 48.232 188.298 46.5363 187.047 45.286C185.797 44.0358 184.101 43.3334 182.333 43.3334ZM189.21 38.5734C191.708 40.0757 193.646 42.3555 194.725 45.0637C195.804 47.7718 195.966 50.7591 195.186 53.5681C194.406 56.3771 192.727 58.853 190.405 60.6167C188.084 62.3804 185.249 63.3347 182.333 63.3334H157.333V16.6667H179C181.538 16.667 184.024 17.3918 186.164 18.756C188.305 20.1201 190.011 22.0669 191.084 24.3675C192.156 26.6682 192.549 29.2271 192.217 31.7436C191.885 34.26 190.842 36.6295 189.21 38.5734ZM205.667 20.0001H224V25.0001H205.667V20.0001ZM230.667 48.3334H205.667V49.1668C205.666 51.2259 206.358 53.2253 207.633 54.8428C208.907 56.4603 210.689 57.6016 212.691 58.0829C214.693 58.5641 216.799 58.3573 218.669 57.4957C220.539 56.6341 222.065 55.1679 223 53.3334H230.113C229.098 57.0277 226.778 60.2286 223.583 62.3433C220.388 64.458 216.535 65.343 212.737 64.8345C208.94 64.3259 205.456 62.4583 202.93 59.5775C200.404 56.6967 199.008 52.9981 199 49.1668V44.1668C199 39.9675 200.668 35.9402 203.637 32.9709C206.607 30.0016 210.634 28.3334 214.833 28.3334C219.033 28.3334 223.06 30.0016 226.029 32.9709C228.999 35.9402 230.667 39.9675 230.667 44.1668V48.3334ZM223.653 41.6668C223.108 39.7484 221.951 38.0603 220.36 36.8583C218.768 35.6563 216.828 35.006 214.833 35.006C212.839 35.006 210.899 35.6563 209.307 36.8583C207.715 38.0603 206.559 39.7484 206.013 41.6668H223.653Z" fill="#C4C4C4"/>
<path d="M344 36.6667H372.443C372.59 37.95 372.667 39.2667 372.667 40.6133C372.667 49.7267 369.4 57.4 363.74 62.6133C358.79 67.1833 352.013 69.8633 343.933 69.8633C340.002 69.8651 336.109 69.0921 332.477 67.5887C328.845 66.0852 325.544 63.8807 322.765 61.1012C319.985 58.3216 317.78 55.0215 316.276 51.3894C314.772 47.7573 313.999 43.8644 314 39.9333C313.998 36.0019 314.771 32.1087 316.275 28.4763C317.779 24.8438 319.983 21.5433 322.763 18.7634C325.543 15.9834 328.844 13.7786 332.476 12.275C336.109 10.7713 340.002 9.99825 343.933 10C352 10 358.777 12.9667 363.96 17.7967L359.087 22.6667C355.227 18.9367 350.01 16.6667 344 16.6667C340.936 16.6667 337.902 17.2702 335.071 18.4428C332.24 19.6154 329.668 21.3341 327.501 23.5008C325.334 25.6675 323.615 28.2398 322.443 31.0707C321.27 33.9016 320.667 36.9358 320.667 40C320.667 43.0642 321.27 46.0984 322.443 48.9293C323.615 51.7602 325.334 54.3325 327.501 56.4992C329.668 58.6659 332.24 60.3846 335.071 61.5572C337.902 62.7298 340.936 63.3333 344 63.3333C355.753 63.3333 364.48 54.64 365.923 43.3333H344V36.6667Z" fill="#C4C4C4"/>
<path d="M494 31.8334C497.057 28.7101 501.037 26.6667 505.667 26.6667C510.529 26.6667 515.192 28.5983 518.63 32.0365C522.068 35.4746 524 40.1378 524 45.0001V70.0001H517.333V45.0001C517.333 41.9059 516.104 38.9384 513.916 36.7505C511.728 34.5626 508.761 33.3334 505.667 33.3334C502.572 33.3334 499.605 34.5626 497.417 36.7505C495.229 38.9384 494 41.9059 494 45.0001V70.0001H487.333V28.3334H494V31.8334ZM470.667 21.6667C469.341 21.6667 468.069 21.14 467.131 20.2023C466.193 19.2646 465.667 17.9928 465.667 16.6667C465.667 15.3407 466.193 14.0689 467.131 13.1312C468.069 12.1935 469.341 11.6667 470.667 11.6667C471.993 11.6667 473.265 12.1935 474.202 13.1312C475.14 14.0689 475.667 15.3407 475.667 16.6667C475.667 17.9928 475.14 19.2646 474.202 20.2023C473.265 21.14 471.993 21.6667 470.667 21.6667ZM467.333 28.3334H474V70.0001H467.333V28.3334Z" fill="#C4C4C4"/>
</g>
<defs>
<filter id="filter0_d" x="0" y="0" width="538" height="88" filterUnits="userSpaceOnUse" color-interpolation-filters="sRGB">
<feFlood flood-opacity="0" result="BackgroundImageFix"/>
<feColorMatrix in="SourceAlpha" type="matrix" values="0 0 0 0 0 0 0 0 0 0 0 0 0 0 0 0 0 0 127 0" result="hardAlpha"/>
<feOffset dy="4"/>
<feGaussianBlur stdDeviation="2"/>
<feComposite in2="hardAlpha" operator="out"/>
<feColorMatrix type="matrix" values="0 0 0 0 0 0 0 0 0 0 0 0 0 0 0 0 0 0 0.25 0"/>
<feBlend mode="normal" in2="BackgroundImageFix" result="effect1_dropShadow"/>
<feBlend mode="normal" in="SourceGraphic" in2="effect1_dropShadow" result="shape"/>
</filter>
</defs>
</svg>
