<svg width="24" height="24" viewBox="0 0 24 24" fill="none" xmlns="http://www.w3.org/2000/svg">
<path d="M14 19H19V5H5V19H12V14H10V12H12V10C12 8.67527 11.7424 8.48451 12 8C12.2538 7.52063 13.5204 7.25334 14 7C14.3785 6.79688 14.1776 7.05251 15 7C15.326 6.97919 16.4818 6.92569 17 7V8H16C15.0914 8 14.2239 8.88011 14 9C13.8664 9.06872 14.0687 8.86638 14 9C13.8811 9.22393 14 9.09042 14 10V12H17L16 14H14V19ZM4 3H20C20.2628 3 20.8142 2.81418 21 3C21.1858 3.18582 21 3.73722 21 4V20C21 20.2628 21.1858 20.8142 21 21C20.8142 21.1858 20.2628 21 20 21H4C3.73722 21 3.18582 21.1858 3 21C2.81419 20.8142 3 20.2628 3 20V4C3 3.73722 2.81419 3.18582 3 3C3.18582 2.81418 3.73722 3 4 3V3Z" fill="white"/>
</svg>
