<svg width="24" height="24" viewBox="0 0 24 24" fill="none" xmlns="http://www.w3.org/2000/svg">
<path d="M12 9C11.2061 9 10.5614 9.43864 10 10C9.43864 10.5614 9 11.2061 9 12C9 12.7939 9.43864 13.4386 10 14C10.5614 14.5614 11.2061 15 12 15C12.7939 15 13.4386 14.5614 14 14C14.5614 13.4386 15 12.7939 15 12C15 11.2061 14.5614 10.5614 14 10C13.4386 9.43864 12.7939 9 12 9ZM12 7C13.3231 7 15.0644 7.0644 16 8C16.9356 8.9356 17 10.6769 17 12C17 13.3231 16.9356 15.0644 16 16C15.0644 16.9356 13.3231 17 12 17C10.6769 17 8.9356 16.9356 8 16C7.0644 15.0644 7 13.3231 7 12C7 10.6769 7.0644 8.9356 8 8C8.9356 7.0644 10.6769 7 12 7V7ZM19 7C19 7.33079 18.2339 7.7661 18 8C17.7661 8.2339 17.3308 8 17 8C16.6692 8 16.2339 8.2339 16 8C15.7661 7.7661 16 7.33079 16 7C16 6.66922 15.7661 6.2339 16 6C16.2339 5.7661 16.6692 6 17 6C17.3308 6 17.7661 5.7661 18 6C18.2339 6.2339 19 6.66922 19 7V7ZM12 4C9.53149 4 9.14845 3.94911 8 4C7.21774 4.03692 6.48692 3.81042 6 4C5.56696 4.16763 5.33226 4.66674 5 5C4.6877 5.30173 4.15002 5.59249 4 6C3.81042 6.48892 4.03592 7.21874 4 8C3.94812 9.10155 4 9.46663 4 12C4 14.4685 3.94911 14.8516 4 16C4.03692 16.7813 3.81142 17.5141 4 18C4.16962 18.434 4.66874 18.6687 5 19C5.33625 19.3353 5.57096 19.8344 6 20C6.49291 20.1906 7.22173 19.9641 8 20C9.10155 20.0519 9.46663 20 12 20C14.4685 20 14.8516 20.0509 16 20C16.7803 19.9631 17.5131 20.1886 18 20C18.432 19.8314 18.6687 19.3313 19 19C19.3363 18.6637 19.8344 18.429 20 18C20.1896 17.5081 19.9641 16.7783 20 16C20.0519 14.8984 20 14.5334 20 12C20 9.53149 20.0509 9.14845 20 8C19.9631 7.21974 20.1896 6.48692 20 6C19.8496 5.59291 19.3114 5.30229 19 5C18.6984 4.68754 18.4076 4.14984 18 4C17.5111 3.81042 16.7803 4.03592 16 4C14.8984 3.94812 14.5334 4 12 4ZM12 2C14.711 2 14.9364 1.95011 16 2C17.0626 2.04989 18.3634 2.75255 19 3C19.6585 3.25344 19.4452 3.44623 20 4C20.5074 4.49879 20.7495 4.33407 21 5C21.2465 5.63559 21.9501 6.93736 22 8C22.0469 9.06364 22 9.28903 22 12C22 14.711 22.0499 14.9364 22 16C21.9501 17.0626 21.2465 18.3634 21 19C20.7502 19.6663 20.508 19.5017 20 20C19.5011 20.5072 19.6658 20.7493 19 21C18.3644 21.2465 17.0626 21.9501 16 22C14.9364 22.0469 14.711 22 12 22C9.28903 22 9.06364 22.0499 8 22C6.93736 21.9501 5.63659 21.2465 5 21C4.33381 20.75 4.49842 20.5078 4 20C3.49254 19.5013 3.25038 19.666 3 19C2.75255 18.3644 2.04989 17.0626 2 16C1.95311 14.9364 2 14.711 2 12C2 9.28903 1.95011 9.06364 2 8C2.04989 6.93637 2.75255 5.63659 3 5C3.24968 4.33366 3.49193 4.49822 4 4C4.49856 3.49236 4.33391 3.25018 5 3C5.63659 2.75255 6.93637 2.04989 8 2C9.06364 1.95311 9.28903 2 12 2Z" fill="white"/>
</svg>
