<svg width="230" height="230" viewBox="0 0 230 230" fill="none" xmlns="http://www.w3.org/2000/svg">
<g filter="url(#filter0_d)">
<rect x="30" y="30" width="170" height="170" fill="white"/>
</g>
<path d="M133.75 71.25V75.4167C133.75 95.4729 122.556 104.583 108.75 104.583H100.923C100.583 106.483 100.417 108.556 100.417 110.833H96.25C96.25 107.994 96.4917 105.417 96.9708 103.058C96.4917 100.363 96.25 96.7042 96.25 92.0833C96.25 80.5771 105.577 71.25 117.083 71.25C121.25 71.25 125.417 73.3333 133.75 71.25ZM117.083 75.4167C107.879 75.4167 100.417 82.8792 100.417 92.0833C100.417 92.8375 100.423 93.5646 100.438 94.2625C103.05 90.1417 106.877 86.8854 111.883 84.025L113.95 87.6417C108.002 91.0417 104.056 94.9042 102.033 100.417H108.75C121.281 100.417 129.315 92.1396 129.577 76.225C126.719 76.5021 124.062 76.325 120.785 75.8333C118.39 75.4729 117.919 75.4167 117.083 75.4167Z" fill="#0E1B1B"/>
<path d="M70.9648 148H63.6963V135.15H70.9648V136.926H65.7969V140.424H70.6396V142.182H65.7969V146.216H70.9648V148ZM77.4512 148.176C75.9805 148.176 74.8613 147.748 74.0938 146.893C73.332 146.031 72.9512 144.798 72.9512 143.192C72.9512 141.558 73.3496 140.301 74.1465 139.422C74.9492 138.543 76.1064 138.104 77.6182 138.104C78.6436 138.104 79.5664 138.294 80.3867 138.675L79.7627 140.336C78.8896 139.996 78.1689 139.826 77.6006 139.826C75.9189 139.826 75.0781 140.942 75.0781 143.175C75.0781 144.265 75.2861 145.085 75.7021 145.636C76.124 146.181 76.7393 146.453 77.5479 146.453C78.4678 146.453 79.3379 146.225 80.1582 145.768V147.569C79.7891 147.786 79.3936 147.941 78.9717 148.035C78.5557 148.129 78.0488 148.176 77.4512 148.176ZM91.0654 143.122C91.0654 144.71 90.6582 145.949 89.8438 146.84C89.0293 147.73 87.8955 148.176 86.4424 148.176C85.5342 148.176 84.7314 147.971 84.0342 147.561C83.3369 147.15 82.8008 146.562 82.4258 145.794C82.0508 145.026 81.8633 144.136 81.8633 143.122C81.8633 141.546 82.2676 140.315 83.0762 139.431C83.8848 138.546 85.0244 138.104 86.4951 138.104C87.9014 138.104 89.0146 138.558 89.835 139.466C90.6553 140.368 91.0654 141.587 91.0654 143.122ZM83.9902 143.122C83.9902 145.366 84.8193 146.488 86.4775 146.488C88.1182 146.488 88.9385 145.366 88.9385 143.122C88.9385 140.901 88.1123 139.791 86.46 139.791C85.5928 139.791 84.9629 140.078 84.5703 140.652C84.1836 141.227 83.9902 142.05 83.9902 143.122ZM92.6035 144.054V142.296H97.1211V144.054H92.6035ZM101.551 148H99.4678V135.15H106.719V136.926H101.551V140.942H106.394V142.727H101.551V148ZM113.759 138.104C114.175 138.104 114.518 138.133 114.787 138.191L114.585 140.116C114.292 140.046 113.987 140.011 113.671 140.011C112.845 140.011 112.174 140.28 111.658 140.819C111.148 141.358 110.894 142.059 110.894 142.92V148H108.828V138.279H110.445L110.718 139.993H110.823C111.146 139.413 111.564 138.953 112.08 138.613C112.602 138.273 113.161 138.104 113.759 138.104ZM118.663 148H116.598V138.279H118.663V148ZM116.475 135.704C116.475 135.335 116.574 135.051 116.773 134.852C116.979 134.652 117.269 134.553 117.644 134.553C118.007 134.553 118.288 134.652 118.487 134.852C118.692 135.051 118.795 135.335 118.795 135.704C118.795 136.056 118.692 136.334 118.487 136.539C118.288 136.738 118.007 136.838 117.644 136.838C117.269 136.838 116.979 136.738 116.773 136.539C116.574 136.334 116.475 136.056 116.475 135.704ZM125.87 148.176C124.358 148.176 123.175 147.736 122.319 146.857C121.47 145.973 121.045 144.757 121.045 143.21C121.045 141.622 121.44 140.374 122.231 139.466C123.022 138.558 124.109 138.104 125.492 138.104C126.775 138.104 127.789 138.493 128.533 139.272C129.277 140.052 129.649 141.124 129.649 142.489V143.605H123.172C123.201 144.549 123.456 145.275 123.937 145.785C124.417 146.289 125.094 146.541 125.967 146.541C126.541 146.541 127.074 146.488 127.566 146.383C128.064 146.271 128.598 146.09 129.166 145.838V147.517C128.662 147.757 128.152 147.927 127.637 148.026C127.121 148.126 126.532 148.176 125.87 148.176ZM125.492 139.668C124.836 139.668 124.309 139.876 123.91 140.292C123.518 140.708 123.283 141.314 123.207 142.111H127.619C127.607 141.309 127.414 140.702 127.039 140.292C126.664 139.876 126.148 139.668 125.492 139.668ZM140.548 148H138.474V142.023C138.474 141.273 138.321 140.714 138.017 140.345C137.718 139.976 137.24 139.791 136.584 139.791C135.711 139.791 135.072 140.049 134.668 140.564C134.264 141.08 134.062 141.944 134.062 143.157V148H131.996V138.279H133.613L133.903 139.554H134.009C134.302 139.091 134.718 138.733 135.257 138.481C135.796 138.229 136.394 138.104 137.05 138.104C139.382 138.104 140.548 139.29 140.548 141.663V148ZM146.7 148.176C145.487 148.176 144.541 147.736 143.861 146.857C143.182 145.979 142.842 144.745 142.842 143.157C142.842 141.563 143.185 140.324 143.87 139.439C144.562 138.549 145.517 138.104 146.735 138.104C148.013 138.104 148.985 138.575 149.653 139.519H149.759C149.659 138.821 149.609 138.271 149.609 137.866V134.324H151.684V148H150.066L149.706 146.726H149.609C148.947 147.692 147.978 148.176 146.7 148.176ZM147.254 146.506C148.104 146.506 148.722 146.269 149.108 145.794C149.495 145.313 149.694 144.537 149.706 143.465V143.175C149.706 141.95 149.507 141.08 149.108 140.564C148.71 140.049 148.086 139.791 147.236 139.791C146.51 139.791 145.95 140.087 145.558 140.679C145.165 141.265 144.969 142.103 144.969 143.192C144.969 144.271 145.159 145.094 145.54 145.662C145.921 146.225 146.492 146.506 147.254 146.506ZM156.702 148H154.637V134.324H156.702V148ZM158.188 138.279H160.438L162.415 143.79C162.714 144.575 162.913 145.313 163.013 146.005H163.083C163.136 145.683 163.232 145.293 163.373 144.836C163.514 144.373 164.258 142.188 165.605 138.279H167.838L163.681 149.292C162.925 151.313 161.665 152.324 159.901 152.324C159.444 152.324 158.999 152.274 158.565 152.175V150.54C158.876 150.61 159.23 150.646 159.629 150.646C160.625 150.646 161.325 150.068 161.729 148.914L162.09 148L158.188 138.279Z" fill="#0E1B1B"/>
<defs>
<filter id="filter0_d" x="0" y="0" width="230" height="230" filterUnits="userSpaceOnUse" color-interpolation-filters="sRGB">
<feFlood flood-opacity="0" result="BackgroundImageFix"/>
<feColorMatrix in="SourceAlpha" type="matrix" values="0 0 0 0 0 0 0 0 0 0 0 0 0 0 0 0 0 0 127 0" result="hardAlpha"/>
<feOffset/>
<feGaussianBlur stdDeviation="15"/>
<feColorMatrix type="matrix" values="0 0 0 0 0 0 0 0 0 0 0 0 0 0 0 0 0 0 0.1 0"/>
<feBlend mode="normal" in2="BackgroundImageFix" result="effect1_dropShadow"/>
<feBlend mode="normal" in="SourceGraphic" in2="effect1_dropShadow" result="shape"/>
</filter>
</defs>
</svg>
