<svg width="170" height="170" viewBox="0 0 170 170" fill="none" xmlns="http://www.w3.org/2000/svg">
<rect width="170" height="170" fill="white"/>
<path d="M103.75 41.25V45.4167C103.75 65.4729 92.5562 74.5833 78.75 74.5833H70.9229C70.5833 76.4833 70.4167 78.5563 70.4167 80.8333H66.25C66.25 77.9938 66.4917 75.4167 66.9708 73.0583C66.4917 70.3625 66.25 66.7042 66.25 62.0833C66.25 50.5771 75.5771 41.25 87.0833 41.25C91.25 41.25 95.4167 43.3333 103.75 41.25ZM87.0833 45.4167C77.8792 45.4167 70.4167 52.8792 70.4167 62.0833C70.4167 62.8375 70.4229 63.5646 70.4375 64.2625C73.05 60.1417 76.8771 56.8854 81.8833 54.025L83.95 57.6417C78.0021 61.0417 74.0562 64.9042 72.0333 70.4167H78.75C91.2812 70.4167 99.3146 62.1396 99.5771 46.225C96.7187 46.5021 94.0625 46.325 90.7854 45.8333C88.3896 45.4729 87.9187 45.4167 87.0833 45.4167Z" fill="#0E1B1B"/>
<path d="M40.9648 118H33.6963V105.15H40.9648V106.926H35.7969V110.424H40.6396V112.182H35.7969V116.216H40.9648V118ZM47.4512 118.176C45.9805 118.176 44.8613 117.748 44.0938 116.893C43.332 116.031 42.9512 114.798 42.9512 113.192C42.9512 111.558 43.3496 110.301 44.1465 109.422C44.9492 108.543 46.1064 108.104 47.6182 108.104C48.6436 108.104 49.5664 108.294 50.3867 108.675L49.7627 110.336C48.8896 109.996 48.1689 109.826 47.6006 109.826C45.9189 109.826 45.0781 110.942 45.0781 113.175C45.0781 114.265 45.2861 115.085 45.7021 115.636C46.124 116.181 46.7393 116.453 47.5479 116.453C48.4678 116.453 49.3379 116.225 50.1582 115.768V117.569C49.7891 117.786 49.3936 117.941 48.9717 118.035C48.5557 118.129 48.0488 118.176 47.4512 118.176ZM61.0654 113.122C61.0654 114.71 60.6582 115.949 59.8438 116.84C59.0293 117.73 57.8955 118.176 56.4424 118.176C55.5342 118.176 54.7314 117.971 54.0342 117.561C53.3369 117.15 52.8008 116.562 52.4258 115.794C52.0508 115.026 51.8633 114.136 51.8633 113.122C51.8633 111.546 52.2676 110.315 53.0762 109.431C53.8848 108.546 55.0244 108.104 56.4951 108.104C57.9014 108.104 59.0146 108.558 59.835 109.466C60.6553 110.368 61.0654 111.587 61.0654 113.122ZM53.9902 113.122C53.9902 115.366 54.8193 116.488 56.4775 116.488C58.1182 116.488 58.9385 115.366 58.9385 113.122C58.9385 110.901 58.1123 109.791 56.46 109.791C55.5928 109.791 54.9629 110.078 54.5703 110.652C54.1836 111.227 53.9902 112.05 53.9902 113.122ZM62.6035 114.054V112.296H67.1211V114.054H62.6035ZM71.5508 118H69.4678V105.15H76.7188V106.926H71.5508V110.942H76.3936V112.727H71.5508V118ZM83.7588 108.104C84.1748 108.104 84.5176 108.133 84.7871 108.191L84.585 110.116C84.292 110.046 83.9873 110.011 83.6709 110.011C82.8447 110.011 82.1738 110.28 81.6582 110.819C81.1484 111.358 80.8936 112.059 80.8936 112.92V118H78.8281V108.279H80.4453L80.7178 109.993H80.8232C81.1455 109.413 81.5645 108.953 82.0801 108.613C82.6016 108.273 83.1611 108.104 83.7588 108.104ZM88.6631 118H86.5977V108.279H88.6631V118ZM86.4746 105.704C86.4746 105.335 86.5742 105.051 86.7734 104.852C86.9785 104.652 87.2686 104.553 87.6436 104.553C88.0068 104.553 88.2881 104.652 88.4873 104.852C88.6924 105.051 88.7949 105.335 88.7949 105.704C88.7949 106.056 88.6924 106.334 88.4873 106.539C88.2881 106.738 88.0068 106.838 87.6436 106.838C87.2686 106.838 86.9785 106.738 86.7734 106.539C86.5742 106.334 86.4746 106.056 86.4746 105.704ZM95.8701 118.176C94.3584 118.176 93.1748 117.736 92.3193 116.857C91.4697 115.973 91.0449 114.757 91.0449 113.21C91.0449 111.622 91.4404 110.374 92.2314 109.466C93.0225 108.558 94.1094 108.104 95.4922 108.104C96.7754 108.104 97.7891 108.493 98.5332 109.272C99.2773 110.052 99.6494 111.124 99.6494 112.489V113.605H93.1719C93.2012 114.549 93.4561 115.275 93.9365 115.785C94.417 116.289 95.0938 116.541 95.9668 116.541C96.541 116.541 97.0742 116.488 97.5664 116.383C98.0645 116.271 98.5977 116.09 99.166 115.838V117.517C98.6621 117.757 98.1523 117.927 97.6367 118.026C97.1211 118.126 96.5322 118.176 95.8701 118.176ZM95.4922 109.668C94.8359 109.668 94.3086 109.876 93.9102 110.292C93.5176 110.708 93.2832 111.314 93.207 112.111H97.6191C97.6074 111.309 97.4141 110.702 97.0391 110.292C96.6641 109.876 96.1484 109.668 95.4922 109.668ZM110.548 118H108.474V112.023C108.474 111.273 108.321 110.714 108.017 110.345C107.718 109.976 107.24 109.791 106.584 109.791C105.711 109.791 105.072 110.049 104.668 110.564C104.264 111.08 104.062 111.944 104.062 113.157V118H101.996V108.279H103.613L103.903 109.554H104.009C104.302 109.091 104.718 108.733 105.257 108.481C105.796 108.229 106.394 108.104 107.05 108.104C109.382 108.104 110.548 109.29 110.548 111.663V118ZM116.7 118.176C115.487 118.176 114.541 117.736 113.861 116.857C113.182 115.979 112.842 114.745 112.842 113.157C112.842 111.563 113.185 110.324 113.87 109.439C114.562 108.549 115.517 108.104 116.735 108.104C118.013 108.104 118.985 108.575 119.653 109.519H119.759C119.659 108.821 119.609 108.271 119.609 107.866V104.324H121.684V118H120.066L119.706 116.726H119.609C118.947 117.692 117.978 118.176 116.7 118.176ZM117.254 116.506C118.104 116.506 118.722 116.269 119.108 115.794C119.495 115.313 119.694 114.537 119.706 113.465V113.175C119.706 111.95 119.507 111.08 119.108 110.564C118.71 110.049 118.086 109.791 117.236 109.791C116.51 109.791 115.95 110.087 115.558 110.679C115.165 111.265 114.969 112.103 114.969 113.192C114.969 114.271 115.159 115.094 115.54 115.662C115.921 116.225 116.492 116.506 117.254 116.506ZM126.702 118H124.637V104.324H126.702V118ZM128.188 108.279H130.438L132.415 113.79C132.714 114.575 132.913 115.313 133.013 116.005H133.083C133.136 115.683 133.232 115.293 133.373 114.836C133.514 114.373 134.258 112.188 135.605 108.279H137.838L133.681 119.292C132.925 121.313 131.665 122.324 129.901 122.324C129.444 122.324 128.999 122.274 128.565 122.175V120.54C128.876 120.61 129.23 120.646 129.629 120.646C130.625 120.646 131.325 120.068 131.729 118.914L132.09 118L128.188 108.279Z" fill="#0E1B1B"/>
</svg>
