<svg width="230" height="230" viewBox="0 0 230 230" fill="none" xmlns="http://www.w3.org/2000/svg">
<g filter="url(#filter0_d)">
<rect x="30" y="30" width="170" height="170" fill="white"/>
</g>
<path d="M101.104 71.8145C102.494 71.3186 104.001 71.256 105.427 71.6349C106.853 72.0138 108.131 72.8164 109.091 73.9367C110.051 75.057 110.649 76.4422 110.805 77.9093C110.962 79.3765 110.669 80.8566 109.967 82.1541L132.277 104.467L129.331 107.412L107.019 85.0999C105.721 85.7997 104.242 86.0899 102.776 85.9322C101.31 85.7745 99.926 85.1764 98.8067 84.2166C97.6875 83.2568 96.8853 81.9804 96.5058 80.5557C96.1264 79.1309 96.1876 77.6246 96.6813 76.2353L101.342 80.8957C101.63 81.1942 101.975 81.4323 102.356 81.5961C102.737 81.7598 103.147 81.846 103.562 81.8497C103.977 81.8533 104.389 81.7742 104.773 81.6171C105.157 81.4599 105.506 81.2279 105.799 80.9345C106.093 80.6411 106.325 80.2922 106.482 79.9081C106.639 79.524 106.718 79.1125 106.714 78.6976C106.711 78.2827 106.625 77.8726 106.461 77.4914C106.297 77.1101 106.059 76.7653 105.76 76.477L101.102 71.8124L101.104 71.8145ZM122.702 75.7395L129.331 72.0562L132.277 75.002L128.594 81.6312L124.91 82.3687L120.494 86.7874L117.546 83.8416L121.965 79.4228L122.702 75.7395ZM108.706 92.6812L111.652 95.627L100.604 106.675C100.229 107.052 99.7231 107.27 99.1913 107.286C98.6596 107.302 98.1419 107.114 97.7444 106.761C97.3469 106.407 97.0997 105.915 97.0535 105.385C97.0073 104.855 97.1656 104.327 97.4958 103.91L97.6584 103.729L108.706 92.6812Z" fill="#0E1B1B"/>
<path d="M92.1465 141.452C92.1465 143.573 91.5576 145.196 90.3799 146.321C89.2021 147.44 87.5059 148 85.291 148H81.6963V135.15H85.6689C87.7139 135.15 89.3047 135.701 90.4414 136.803C91.5781 137.904 92.1465 139.454 92.1465 141.452ZM89.9316 141.522C89.9316 138.446 88.4932 136.908 85.6162 136.908H83.7969V146.233H85.291C88.3848 146.233 89.9316 144.663 89.9316 141.522ZM101.551 148L101.261 146.726H101.155C100.868 147.177 100.458 147.531 99.9248 147.789C99.3975 148.047 98.7939 148.176 98.1143 148.176C96.9365 148.176 96.0576 147.883 95.4775 147.297C94.8975 146.711 94.6074 145.823 94.6074 144.634V138.279H96.6904V144.273C96.6904 145.018 96.8428 145.577 97.1475 145.952C97.4521 146.321 97.9297 146.506 98.5801 146.506C99.4473 146.506 100.083 146.248 100.487 145.732C100.897 145.211 101.103 144.341 101.103 143.122V138.279H103.177V148H101.551ZM111.052 138.104C111.468 138.104 111.811 138.133 112.08 138.191L111.878 140.116C111.585 140.046 111.28 140.011 110.964 140.011C110.138 140.011 109.467 140.28 108.951 140.819C108.441 141.358 108.187 142.059 108.187 142.92V148H106.121V138.279H107.738L108.011 139.993H108.116C108.438 139.413 108.857 138.953 109.373 138.613C109.895 138.273 110.454 138.104 111.052 138.104ZM119.973 148L119.56 146.646H119.489C119.021 147.238 118.549 147.643 118.074 147.859C117.6 148.07 116.99 148.176 116.246 148.176C115.291 148.176 114.544 147.918 114.005 147.402C113.472 146.887 113.205 146.157 113.205 145.214C113.205 144.212 113.577 143.456 114.321 142.946C115.065 142.437 116.199 142.158 117.723 142.111L119.401 142.059V141.54C119.401 140.919 119.255 140.456 118.962 140.151C118.675 139.841 118.227 139.686 117.617 139.686C117.119 139.686 116.642 139.759 116.185 139.905C115.728 140.052 115.288 140.225 114.866 140.424L114.198 138.947C114.726 138.672 115.303 138.464 115.93 138.323C116.557 138.177 117.148 138.104 117.705 138.104C118.941 138.104 119.873 138.373 120.5 138.912C121.133 139.451 121.449 140.298 121.449 141.452V148H119.973ZM116.896 146.594C117.646 146.594 118.247 146.386 118.698 145.97C119.155 145.548 119.384 144.959 119.384 144.203V143.359L118.136 143.412C117.163 143.447 116.454 143.611 116.009 143.904C115.569 144.191 115.35 144.634 115.35 145.231C115.35 145.665 115.479 146.002 115.736 146.242C115.994 146.477 116.381 146.594 116.896 146.594ZM129.298 138.104C130.511 138.104 131.454 138.543 132.128 139.422C132.808 140.301 133.147 141.534 133.147 143.122C133.147 144.716 132.805 145.958 132.119 146.849C131.434 147.733 130.481 148.176 129.263 148.176C128.032 148.176 127.077 147.733 126.397 146.849H126.257L125.879 148H124.332V134.324H126.397V137.576C126.397 137.816 126.386 138.174 126.362 138.648C126.339 139.123 126.321 139.425 126.31 139.554H126.397C127.054 138.587 128.021 138.104 129.298 138.104ZM128.762 139.791C127.93 139.791 127.329 140.037 126.96 140.529C126.597 141.016 126.409 141.833 126.397 142.981V143.122C126.397 144.306 126.585 145.164 126.96 145.697C127.335 146.225 127.947 146.488 128.797 146.488C129.529 146.488 130.083 146.198 130.458 145.618C130.839 145.038 131.029 144.2 131.029 143.104C131.029 140.896 130.273 139.791 128.762 139.791ZM137.612 148H135.547V134.324H137.612V148ZM144.819 148.176C143.308 148.176 142.124 147.736 141.269 146.857C140.419 145.973 139.994 144.757 139.994 143.21C139.994 141.622 140.39 140.374 141.181 139.466C141.972 138.558 143.059 138.104 144.441 138.104C145.725 138.104 146.738 138.493 147.482 139.272C148.227 140.052 148.599 141.124 148.599 142.489V143.605H142.121C142.15 144.549 142.405 145.275 142.886 145.785C143.366 146.289 144.043 146.541 144.916 146.541C145.49 146.541 146.023 146.488 146.516 146.383C147.014 146.271 147.547 146.09 148.115 145.838V147.517C147.611 147.757 147.102 147.927 146.586 148.026C146.07 148.126 145.481 148.176 144.819 148.176ZM144.441 139.668C143.785 139.668 143.258 139.876 142.859 140.292C142.467 140.708 142.232 141.314 142.156 142.111H146.568C146.557 141.309 146.363 140.702 145.988 140.292C145.613 139.876 145.098 139.668 144.441 139.668Z" fill="#0E1B1B"/>
<defs>
<filter id="filter0_d" x="0" y="0" width="230" height="230" filterUnits="userSpaceOnUse" color-interpolation-filters="sRGB">
<feFlood flood-opacity="0" result="BackgroundImageFix"/>
<feColorMatrix in="SourceAlpha" type="matrix" values="0 0 0 0 0 0 0 0 0 0 0 0 0 0 0 0 0 0 127 0" result="hardAlpha"/>
<feOffset/>
<feGaussianBlur stdDeviation="15"/>
<feColorMatrix type="matrix" values="0 0 0 0 0 0 0 0 0 0 0 0 0 0 0 0 0 0 0.1 0"/>
<feBlend mode="normal" in2="BackgroundImageFix" result="effect1_dropShadow"/>
<feBlend mode="normal" in="SourceGraphic" in2="effect1_dropShadow" result="shape"/>
</filter>
</defs>
</svg>
