<svg width="170" height="170" viewBox="0 0 170 170" fill="none" xmlns="http://www.w3.org/2000/svg">
<rect width="170" height="170" fill="white"/>
<path d="M71.1042 41.8145C72.4938 41.3186 74.0012 41.256 75.4272 41.6349C76.8532 42.0138 78.1307 42.8164 79.091 43.9367C80.0512 45.057 80.649 46.4422 80.8053 47.9093C80.9617 49.3765 80.6693 50.8566 79.9667 52.1541L102.277 74.4666L99.3313 77.4124L77.0188 55.0999C75.721 55.7997 74.2417 56.0899 72.7757 55.9322C71.3097 55.7745 69.926 55.1764 68.8067 54.2166C67.6875 53.2568 66.8853 51.9804 66.5058 50.5557C66.1264 49.1309 66.1876 47.6246 66.6813 46.2353L71.3417 50.8957C71.63 51.1942 71.9748 51.4323 72.356 51.5961C72.7373 51.7598 73.1474 51.846 73.5623 51.8497C73.9772 51.8533 74.3887 51.7742 74.7728 51.6171C75.1568 51.4599 75.5058 51.2279 75.7992 50.9345C76.0926 50.6411 76.3246 50.2922 76.4818 49.9081C76.6389 49.524 76.7179 49.1125 76.7143 48.6976C76.7107 48.2827 76.6245 47.8726 76.4608 47.4914C76.297 47.1101 76.0589 46.7653 75.7604 46.477L71.1021 41.8124L71.1042 41.8145ZM92.7021 45.7395L99.3313 42.0562L102.277 45.002L98.5938 51.6312L94.9104 52.3687L90.4938 56.7874L87.5459 53.8416L91.9646 49.4228L92.7021 45.7395ZM78.7063 62.6812L81.6521 65.627L70.6042 76.6749C70.2286 77.0516 69.7231 77.2703 69.1913 77.2863C68.6596 77.3022 68.1419 77.1141 67.7444 76.7606C67.3469 76.407 67.0997 75.9148 67.0535 75.3849C67.0073 74.8549 67.1656 74.3273 67.4958 73.9103L67.6584 73.7291L78.7063 62.6812Z" fill="#0E1B1B"/>
<path d="M62.1465 111.452C62.1465 113.573 61.5576 115.196 60.3799 116.321C59.2021 117.44 57.5059 118 55.291 118H51.6963V105.15H55.6689C57.7139 105.15 59.3047 105.701 60.4414 106.803C61.5781 107.904 62.1465 109.454 62.1465 111.452ZM59.9316 111.522C59.9316 108.446 58.4932 106.908 55.6162 106.908H53.7969V116.233H55.291C58.3848 116.233 59.9316 114.663 59.9316 111.522ZM71.5508 118L71.2607 116.726H71.1553C70.8682 117.177 70.458 117.531 69.9248 117.789C69.3975 118.047 68.7939 118.176 68.1143 118.176C66.9365 118.176 66.0576 117.883 65.4775 117.297C64.8975 116.711 64.6074 115.823 64.6074 114.634V108.279H66.6904V114.273C66.6904 115.018 66.8428 115.577 67.1475 115.952C67.4521 116.321 67.9297 116.506 68.5801 116.506C69.4473 116.506 70.083 116.248 70.4873 115.732C70.8975 115.211 71.1025 114.341 71.1025 113.122V108.279H73.1768V118H71.5508ZM81.0518 108.104C81.4678 108.104 81.8105 108.133 82.0801 108.191L81.8779 110.116C81.585 110.046 81.2803 110.011 80.9639 110.011C80.1377 110.011 79.4668 110.28 78.9512 110.819C78.4414 111.358 78.1865 112.059 78.1865 112.92V118H76.1211V108.279H77.7383L78.0107 109.993H78.1162C78.4385 109.413 78.8574 108.953 79.373 108.613C79.8945 108.273 80.4541 108.104 81.0518 108.104ZM89.9727 118L89.5596 116.646H89.4893C89.0205 117.238 88.5488 117.643 88.0742 117.859C87.5996 118.07 86.9902 118.176 86.2461 118.176C85.291 118.176 84.5439 117.918 84.0049 117.402C83.4717 116.887 83.2051 116.157 83.2051 115.214C83.2051 114.212 83.5771 113.456 84.3213 112.946C85.0654 112.437 86.1992 112.158 87.7227 112.111L89.4014 112.059V111.54C89.4014 110.919 89.2549 110.456 88.9619 110.151C88.6748 109.841 88.2266 109.686 87.6172 109.686C87.1191 109.686 86.6416 109.759 86.1846 109.905C85.7275 110.052 85.2881 110.225 84.8662 110.424L84.1982 108.947C84.7256 108.672 85.3027 108.464 85.9297 108.323C86.5566 108.177 87.1484 108.104 87.7051 108.104C88.9414 108.104 89.873 108.373 90.5 108.912C91.1328 109.451 91.4492 110.298 91.4492 111.452V118H89.9727ZM86.8965 116.594C87.6465 116.594 88.2471 116.386 88.6982 115.97C89.1553 115.548 89.3838 114.959 89.3838 114.203V113.359L88.1357 113.412C87.1631 113.447 86.4541 113.611 86.0088 113.904C85.5693 114.191 85.3496 114.634 85.3496 115.231C85.3496 115.665 85.4785 116.002 85.7363 116.242C85.9941 116.477 86.3809 116.594 86.8965 116.594ZM99.2979 108.104C100.511 108.104 101.454 108.543 102.128 109.422C102.808 110.301 103.147 111.534 103.147 113.122C103.147 114.716 102.805 115.958 102.119 116.849C101.434 117.733 100.481 118.176 99.2627 118.176C98.0322 118.176 97.0771 117.733 96.3975 116.849H96.2568L95.8789 118H94.332V104.324H96.3975V107.576C96.3975 107.816 96.3857 108.174 96.3623 108.648C96.3389 109.123 96.3213 109.425 96.3096 109.554H96.3975C97.0537 108.587 98.0205 108.104 99.2979 108.104ZM98.7617 109.791C97.9297 109.791 97.3291 110.037 96.96 110.529C96.5967 111.016 96.4092 111.833 96.3975 112.981V113.122C96.3975 114.306 96.585 115.164 96.96 115.697C97.335 116.225 97.9473 116.488 98.7969 116.488C99.5293 116.488 100.083 116.198 100.458 115.618C100.839 115.038 101.029 114.2 101.029 113.104C101.029 110.896 100.273 109.791 98.7617 109.791ZM107.612 118H105.547V104.324H107.612V118ZM114.819 118.176C113.308 118.176 112.124 117.736 111.269 116.857C110.419 115.973 109.994 114.757 109.994 113.21C109.994 111.622 110.39 110.374 111.181 109.466C111.972 108.558 113.059 108.104 114.441 108.104C115.725 108.104 116.738 108.493 117.482 109.272C118.227 110.052 118.599 111.124 118.599 112.489V113.605H112.121C112.15 114.549 112.405 115.275 112.886 115.785C113.366 116.289 114.043 116.541 114.916 116.541C115.49 116.541 116.023 116.488 116.516 116.383C117.014 116.271 117.547 116.09 118.115 115.838V117.517C117.611 117.757 117.102 117.927 116.586 118.026C116.07 118.126 115.481 118.176 114.819 118.176ZM114.441 109.668C113.785 109.668 113.258 109.876 112.859 110.292C112.467 110.708 112.232 111.314 112.156 112.111H116.568C116.557 111.309 116.363 110.702 115.988 110.292C115.613 109.876 115.098 109.668 114.441 109.668Z" fill="#0E1B1B"/>
</svg>
