<svg width="230" height="230" viewBox="0 0 230 230" fill="none" xmlns="http://www.w3.org/2000/svg">
<g filter="url(#filter0_d)">
<rect x="30" y="30" width="170" height="170" fill="white"/>
</g>
<path d="M115 92.0834C118.452 92.0834 121.25 94.8813 121.25 98.3334C121.25 100.104 120.515 101.7 119.333 102.838L115.354 106.667H121.25V110.833H108.75V107.242L116.444 99.8355C116.84 99.4543 117.083 98.923 117.083 98.3334C117.083 97.1834 116.15 96.2501 115 96.2501C113.85 96.2501 112.917 97.1834 112.917 98.3334H108.75C108.75 94.8813 111.548 92.0834 115 92.0834ZM127.5 92.0834V100.417H131.667V92.0834H135.833V110.833H131.667V104.583H123.333V92.0834H127.5ZM98.3334 90.0001C98.3334 95.2647 100.773 99.9584 104.583 103.013V108.046C98.3563 104.444 94.1667 97.7126 94.1667 90.0001H98.3334ZM115 69.1667C125.802 69.1667 134.685 77.3897 135.729 87.9167H131.538C130.513 79.6959 123.5 73.3334 115 73.3334C109.271 73.3334 104.217 76.223 101.219 80.6251H106.667V84.7917H94.1667V72.2917H98.3334V77.5001C102.133 72.4376 108.185 69.1667 115 69.1667Z" fill="#0E1B1B"/>
<path d="M71.501 148H62.791V146.436L66.1045 143.104C67.083 142.103 67.7305 141.394 68.0469 140.978C68.3691 140.556 68.6035 140.16 68.75 139.791C68.8965 139.422 68.9697 139.026 68.9697 138.604C68.9697 138.024 68.7939 137.567 68.4424 137.233C68.0967 136.899 67.6162 136.732 67.001 136.732C66.5088 136.732 66.0312 136.823 65.5684 137.005C65.1113 137.187 64.5811 137.515 63.9775 137.989L62.8613 136.627C63.5762 136.023 64.2705 135.596 64.9443 135.344C65.6182 135.092 66.3359 134.966 67.0977 134.966C68.293 134.966 69.251 135.279 69.9717 135.906C70.6924 136.527 71.0527 137.365 71.0527 138.42C71.0527 139 70.9473 139.551 70.7363 140.072C70.5312 140.594 70.2119 141.133 69.7783 141.689C69.3506 142.24 68.6357 142.987 67.6338 143.931L65.4014 146.093V146.181H71.501V148ZM82.2412 145.196H80.5098V148H78.4971V145.196H72.626V143.605L78.4971 135.115H80.5098V143.482H82.2412V145.196ZM78.4971 143.482V140.257C78.4971 139.108 78.5264 138.168 78.585 137.436H78.5146C78.3506 137.822 78.0928 138.291 77.7412 138.842L74.5508 143.482H78.4971ZM88.4727 134.324L88.1123 137.682L91.4961 136.732L91.7422 138.64L88.5781 138.895L90.6523 141.628L88.9033 142.568L87.4443 139.598L86.1348 142.568L84.333 141.628L86.3633 138.895L83.2168 138.64L83.5244 136.732L86.8291 137.682L86.4688 134.324H88.4727ZM94.6777 148L99.7578 136.987H93.0781V135.168H101.964V136.609L96.9102 148H94.6777ZM116.492 144.511C116.492 145.653 116.079 146.55 115.253 147.2C114.427 147.851 113.287 148.176 111.834 148.176C110.381 148.176 109.191 147.95 108.266 147.499V145.513C108.852 145.788 109.473 146.005 110.129 146.163C110.791 146.321 111.406 146.4 111.975 146.4C112.807 146.4 113.419 146.242 113.812 145.926C114.21 145.609 114.409 145.185 114.409 144.651C114.409 144.171 114.228 143.764 113.864 143.43C113.501 143.096 112.751 142.7 111.614 142.243C110.442 141.769 109.616 141.227 109.136 140.617C108.655 140.008 108.415 139.275 108.415 138.42C108.415 137.348 108.796 136.504 109.558 135.889C110.319 135.273 111.342 134.966 112.625 134.966C113.855 134.966 115.08 135.235 116.299 135.774L115.631 137.488C114.488 137.008 113.469 136.768 112.572 136.768C111.893 136.768 111.377 136.917 111.025 137.216C110.674 137.509 110.498 137.898 110.498 138.385C110.498 138.719 110.568 139.006 110.709 139.246C110.85 139.48 111.081 139.703 111.403 139.914C111.726 140.125 112.306 140.403 113.144 140.749C114.087 141.142 114.778 141.508 115.218 141.848C115.657 142.188 115.979 142.571 116.185 142.999C116.39 143.427 116.492 143.931 116.492 144.511ZM125.615 148L125.325 146.726H125.22C124.933 147.177 124.522 147.531 123.989 147.789C123.462 148.047 122.858 148.176 122.179 148.176C121.001 148.176 120.122 147.883 119.542 147.297C118.962 146.711 118.672 145.823 118.672 144.634V138.279H120.755V144.273C120.755 145.018 120.907 145.577 121.212 145.952C121.517 146.321 121.994 146.506 122.645 146.506C123.512 146.506 124.147 146.248 124.552 145.732C124.962 145.211 125.167 144.341 125.167 143.122V138.279H127.241V148H125.615ZM135.116 148.176C133.886 148.176 132.931 147.733 132.251 146.849H132.128C132.21 147.669 132.251 148.167 132.251 148.343V152.324H130.186V138.279H131.855C131.902 138.461 131.999 138.895 132.146 139.58H132.251C132.896 138.596 133.862 138.104 135.151 138.104C136.364 138.104 137.308 138.543 137.981 139.422C138.661 140.301 139.001 141.534 139.001 143.122C139.001 144.71 138.655 145.949 137.964 146.84C137.278 147.73 136.329 148.176 135.116 148.176ZM134.615 139.791C133.795 139.791 133.194 140.031 132.813 140.512C132.438 140.992 132.251 141.76 132.251 142.814V143.122C132.251 144.306 132.438 145.164 132.813 145.697C133.188 146.225 133.801 146.488 134.65 146.488C135.365 146.488 135.916 146.195 136.303 145.609C136.689 145.023 136.883 144.188 136.883 143.104C136.883 142.015 136.689 141.191 136.303 140.635C135.922 140.072 135.359 139.791 134.615 139.791ZM146.331 148.176C145.101 148.176 144.146 147.733 143.466 146.849H143.343C143.425 147.669 143.466 148.167 143.466 148.343V152.324H141.4V138.279H143.07C143.117 138.461 143.214 138.895 143.36 139.58H143.466C144.11 138.596 145.077 138.104 146.366 138.104C147.579 138.104 148.522 138.543 149.196 139.422C149.876 140.301 150.216 141.534 150.216 143.122C150.216 144.71 149.87 145.949 149.179 146.84C148.493 147.73 147.544 148.176 146.331 148.176ZM145.83 139.791C145.01 139.791 144.409 140.031 144.028 140.512C143.653 140.992 143.466 141.76 143.466 142.814V143.122C143.466 144.306 143.653 145.164 144.028 145.697C144.403 146.225 145.016 146.488 145.865 146.488C146.58 146.488 147.131 146.195 147.518 145.609C147.904 145.023 148.098 144.188 148.098 143.104C148.098 142.015 147.904 141.191 147.518 140.635C147.137 140.072 146.574 139.791 145.83 139.791ZM161.237 143.122C161.237 144.71 160.83 145.949 160.016 146.84C159.201 147.73 158.067 148.176 156.614 148.176C155.706 148.176 154.903 147.971 154.206 147.561C153.509 147.15 152.973 146.562 152.598 145.794C152.223 145.026 152.035 144.136 152.035 143.122C152.035 141.546 152.439 140.315 153.248 139.431C154.057 138.546 155.196 138.104 156.667 138.104C158.073 138.104 159.187 138.558 160.007 139.466C160.827 140.368 161.237 141.587 161.237 143.122ZM154.162 143.122C154.162 145.366 154.991 146.488 156.649 146.488C158.29 146.488 159.11 145.366 159.11 143.122C159.11 140.901 158.284 139.791 156.632 139.791C155.765 139.791 155.135 140.078 154.742 140.652C154.355 141.227 154.162 142.05 154.162 143.122ZM168.55 138.104C168.966 138.104 169.309 138.133 169.578 138.191L169.376 140.116C169.083 140.046 168.778 140.011 168.462 140.011C167.636 140.011 166.965 140.28 166.449 140.819C165.939 141.358 165.685 142.059 165.685 142.92V148H163.619V138.279H165.236L165.509 139.993H165.614C165.937 139.413 166.355 138.953 166.871 138.613C167.393 138.273 167.952 138.104 168.55 138.104ZM175.01 146.506C175.514 146.506 176.018 146.427 176.521 146.269V147.824C176.293 147.924 175.997 148.006 175.634 148.07C175.276 148.141 174.904 148.176 174.518 148.176C172.561 148.176 171.582 147.145 171.582 145.082V139.844H170.255V138.93L171.679 138.174L172.382 136.117H173.656V138.279H176.425V139.844H173.656V145.047C173.656 145.545 173.779 145.914 174.025 146.154C174.277 146.389 174.605 146.506 175.01 146.506Z" fill="#0E1B1B"/>
<defs>
<filter id="filter0_d" x="0" y="0" width="230" height="230" filterUnits="userSpaceOnUse" color-interpolation-filters="sRGB">
<feFlood flood-opacity="0" result="BackgroundImageFix"/>
<feColorMatrix in="SourceAlpha" type="matrix" values="0 0 0 0 0 0 0 0 0 0 0 0 0 0 0 0 0 0 127 0" result="hardAlpha"/>
<feOffset/>
<feGaussianBlur stdDeviation="15"/>
<feColorMatrix type="matrix" values="0 0 0 0 0 0 0 0 0 0 0 0 0 0 0 0 0 0 0.1 0"/>
<feBlend mode="normal" in2="BackgroundImageFix" result="effect1_dropShadow"/>
<feBlend mode="normal" in="SourceGraphic" in2="effect1_dropShadow" result="shape"/>
</filter>
</defs>
</svg>
