<svg width="170" height="170" viewBox="0 0 170 170" fill="none" xmlns="http://www.w3.org/2000/svg">
<rect width="170" height="170" fill="white"/>
<path d="M85.0001 62.0834C88.4522 62.0834 91.2501 64.8813 91.2501 68.3334C91.2501 70.1042 90.5147 71.7001 89.3334 72.8376L85.3542 76.6668H91.2501V80.8334H78.7501V77.2417L86.4438 69.8355C86.8397 69.4543 87.0834 68.923 87.0834 68.3334C87.0834 67.1834 86.1501 66.2501 85.0001 66.2501C83.8501 66.2501 82.9167 67.1834 82.9167 68.3334H78.7501C78.7501 64.8813 81.548 62.0834 85.0001 62.0834ZM97.5001 62.0834V70.4167H101.667V62.0834H105.833V80.8334H101.667V74.5834H93.3334V62.0834H97.5001ZM68.3334 60.0001C68.3334 65.2647 70.773 69.9584 74.5834 73.0126V78.0459C68.3563 74.4438 64.1667 67.7126 64.1667 60.0001H68.3334ZM85.0001 39.1667C95.8022 39.1667 104.686 47.3897 105.729 57.9167H101.538C100.513 49.6959 93.5001 43.3334 85.0001 43.3334C79.2709 43.3334 74.2167 46.223 71.2188 50.6251H76.6667V54.7917H64.1667V42.2917H68.3334V47.5001C72.1334 42.4376 78.1855 39.1667 85.0001 39.1667Z" fill="#0E1B1B"/>
<path d="M41.501 118H32.791V116.436L36.1045 113.104C37.083 112.103 37.7305 111.394 38.0469 110.978C38.3691 110.556 38.6035 110.16 38.75 109.791C38.8965 109.422 38.9697 109.026 38.9697 108.604C38.9697 108.024 38.7939 107.567 38.4424 107.233C38.0967 106.899 37.6162 106.732 37.001 106.732C36.5088 106.732 36.0312 106.823 35.5684 107.005C35.1113 107.187 34.5811 107.515 33.9775 107.989L32.8613 106.627C33.5762 106.023 34.2705 105.596 34.9443 105.344C35.6182 105.092 36.3359 104.966 37.0977 104.966C38.293 104.966 39.251 105.279 39.9717 105.906C40.6924 106.527 41.0527 107.365 41.0527 108.42C41.0527 109 40.9473 109.551 40.7363 110.072C40.5312 110.594 40.2119 111.133 39.7783 111.689C39.3506 112.24 38.6357 112.987 37.6338 113.931L35.4014 116.093V116.181H41.501V118ZM52.2412 115.196H50.5098V118H48.4971V115.196H42.626V113.605L48.4971 105.115H50.5098V113.482H52.2412V115.196ZM48.4971 113.482V110.257C48.4971 109.108 48.5264 108.168 48.585 107.436H48.5146C48.3506 107.822 48.0928 108.291 47.7412 108.842L44.5508 113.482H48.4971ZM58.4727 104.324L58.1123 107.682L61.4961 106.732L61.7422 108.64L58.5781 108.895L60.6523 111.628L58.9033 112.568L57.4443 109.598L56.1348 112.568L54.333 111.628L56.3633 108.895L53.2168 108.64L53.5244 106.732L56.8291 107.682L56.4688 104.324H58.4727ZM64.6777 118L69.7578 106.987H63.0781V105.168H71.9639V106.609L66.9102 118H64.6777ZM86.4922 114.511C86.4922 115.653 86.0791 116.55 85.2529 117.2C84.4268 117.851 83.2871 118.176 81.834 118.176C80.3809 118.176 79.1914 117.95 78.2656 117.499V115.513C78.8516 115.788 79.4727 116.005 80.1289 116.163C80.791 116.321 81.4062 116.4 81.9746 116.4C82.8066 116.4 83.4189 116.242 83.8115 115.926C84.21 115.609 84.4092 115.185 84.4092 114.651C84.4092 114.171 84.2275 113.764 83.8643 113.43C83.501 113.096 82.751 112.7 81.6143 112.243C80.4424 111.769 79.6162 111.227 79.1357 110.617C78.6553 110.008 78.415 109.275 78.415 108.42C78.415 107.348 78.7959 106.504 79.5576 105.889C80.3193 105.273 81.3418 104.966 82.625 104.966C83.8555 104.966 85.0801 105.235 86.2988 105.774L85.6309 107.488C84.4883 107.008 83.4688 106.768 82.5723 106.768C81.8926 106.768 81.377 106.917 81.0254 107.216C80.6738 107.509 80.498 107.898 80.498 108.385C80.498 108.719 80.5684 109.006 80.709 109.246C80.8496 109.48 81.0811 109.703 81.4033 109.914C81.7256 110.125 82.3057 110.403 83.1436 110.749C84.0869 111.142 84.7783 111.508 85.2178 111.848C85.6572 112.188 85.9795 112.571 86.1846 112.999C86.3896 113.427 86.4922 113.931 86.4922 114.511ZM95.6152 118L95.3252 116.726H95.2197C94.9326 117.177 94.5225 117.531 93.9893 117.789C93.4619 118.047 92.8584 118.176 92.1787 118.176C91.001 118.176 90.1221 117.883 89.542 117.297C88.9619 116.711 88.6719 115.823 88.6719 114.634V108.279H90.7549V114.273C90.7549 115.018 90.9072 115.577 91.2119 115.952C91.5166 116.321 91.9941 116.506 92.6445 116.506C93.5117 116.506 94.1475 116.248 94.5518 115.732C94.9619 115.211 95.167 114.341 95.167 113.122V108.279H97.2412V118H95.6152ZM105.116 118.176C103.886 118.176 102.931 117.733 102.251 116.849H102.128C102.21 117.669 102.251 118.167 102.251 118.343V122.324H100.186V108.279H101.855C101.902 108.461 101.999 108.895 102.146 109.58H102.251C102.896 108.596 103.862 108.104 105.151 108.104C106.364 108.104 107.308 108.543 107.981 109.422C108.661 110.301 109.001 111.534 109.001 113.122C109.001 114.71 108.655 115.949 107.964 116.84C107.278 117.73 106.329 118.176 105.116 118.176ZM104.615 109.791C103.795 109.791 103.194 110.031 102.813 110.512C102.438 110.992 102.251 111.76 102.251 112.814V113.122C102.251 114.306 102.438 115.164 102.813 115.697C103.188 116.225 103.801 116.488 104.65 116.488C105.365 116.488 105.916 116.195 106.303 115.609C106.689 115.023 106.883 114.188 106.883 113.104C106.883 112.015 106.689 111.191 106.303 110.635C105.922 110.072 105.359 109.791 104.615 109.791ZM116.331 118.176C115.101 118.176 114.146 117.733 113.466 116.849H113.343C113.425 117.669 113.466 118.167 113.466 118.343V122.324H111.4V108.279H113.07C113.117 108.461 113.214 108.895 113.36 109.58H113.466C114.11 108.596 115.077 108.104 116.366 108.104C117.579 108.104 118.522 108.543 119.196 109.422C119.876 110.301 120.216 111.534 120.216 113.122C120.216 114.71 119.87 115.949 119.179 116.84C118.493 117.73 117.544 118.176 116.331 118.176ZM115.83 109.791C115.01 109.791 114.409 110.031 114.028 110.512C113.653 110.992 113.466 111.76 113.466 112.814V113.122C113.466 114.306 113.653 115.164 114.028 115.697C114.403 116.225 115.016 116.488 115.865 116.488C116.58 116.488 117.131 116.195 117.518 115.609C117.904 115.023 118.098 114.188 118.098 113.104C118.098 112.015 117.904 111.191 117.518 110.635C117.137 110.072 116.574 109.791 115.83 109.791ZM131.237 113.122C131.237 114.71 130.83 115.949 130.016 116.84C129.201 117.73 128.067 118.176 126.614 118.176C125.706 118.176 124.903 117.971 124.206 117.561C123.509 117.15 122.973 116.562 122.598 115.794C122.223 115.026 122.035 114.136 122.035 113.122C122.035 111.546 122.439 110.315 123.248 109.431C124.057 108.546 125.196 108.104 126.667 108.104C128.073 108.104 129.187 108.558 130.007 109.466C130.827 110.368 131.237 111.587 131.237 113.122ZM124.162 113.122C124.162 115.366 124.991 116.488 126.649 116.488C128.29 116.488 129.11 115.366 129.11 113.122C129.11 110.901 128.284 109.791 126.632 109.791C125.765 109.791 125.135 110.078 124.742 110.652C124.355 111.227 124.162 112.05 124.162 113.122ZM138.55 108.104C138.966 108.104 139.309 108.133 139.578 108.191L139.376 110.116C139.083 110.046 138.778 110.011 138.462 110.011C137.636 110.011 136.965 110.28 136.449 110.819C135.939 111.358 135.685 112.059 135.685 112.92V118H133.619V108.279H135.236L135.509 109.993H135.614C135.937 109.413 136.355 108.953 136.871 108.613C137.393 108.273 137.952 108.104 138.55 108.104ZM145.01 116.506C145.514 116.506 146.018 116.427 146.521 116.269V117.824C146.293 117.924 145.997 118.006 145.634 118.07C145.276 118.141 144.904 118.176 144.518 118.176C142.561 118.176 141.582 117.145 141.582 115.082V109.844H140.255V108.93L141.679 108.174L142.382 106.117H143.656V108.279H146.425V109.844H143.656V115.047C143.656 115.545 143.779 115.914 144.025 116.154C144.277 116.389 144.605 116.506 145.01 116.506Z" fill="#0E1B1B"/>
</svg>
